<svg width="53" height="53" viewBox="0 0 51 52" fill="none" xmlns="http://www.w3.org/2000/svg">
<mask id="path-1-outside-1_32_78" maskUnits="userSpaceOnUse" x="-2" y="-1" width="55" height="55" fill="black">
<rect fill="white" x="-2" y="-1" width="55" height="55"/>
<path d="M9 51V6.504L16.272 13.416H0.36V0.599997H25.992V51H9ZM41.0378 51.72C38.3498 51.72 36.0938 50.856 34.2698 49.128C32.4458 47.352 31.5338 45.096 31.5338 42.36C31.5338 39.576 32.4458 37.344 34.2698 35.664C36.0938 33.984 38.3498 33.144 41.0378 33.144C43.7258 33.144 45.9818 33.984 47.8058 35.664C49.6298 37.344 50.5418 39.576 50.5418 42.36C50.5418 45.096 49.6298 47.352 47.8058 49.128C45.9818 50.856 43.7258 51.72 41.0378 51.72Z"/>
</mask>
<path d="M9 51H7.5V52.5H9V51ZM9 6.504L10.0334 5.41677L7.5 3.00878V6.504H9ZM16.272 13.416V14.916H20.0274L17.3054 12.3288L16.272 13.416ZM0.36 13.416H-1.14V14.916H0.36V13.416ZM0.36 0.599997V-0.900003H-1.14V0.599997H0.36ZM25.992 0.599997H27.492V-0.900003H25.992V0.599997ZM25.992 51V52.5H27.492V51H25.992ZM10.5 51V6.504H7.5V51H10.5ZM7.96659 7.59123L15.2386 14.5032L17.3054 12.3288L10.0334 5.41677L7.96659 7.59123ZM16.272 11.916H0.36V14.916H16.272V11.916ZM1.86 13.416V0.599997H-1.14V13.416H1.86ZM0.36 2.1H25.992V-0.900003H0.36V2.1ZM24.492 0.599997V51H27.492V0.599997H24.492ZM25.992 49.5H9V52.5H25.992V49.5ZM34.2697 49.128L33.2233 50.2027L33.2307 50.2099L33.2381 50.2169L34.2697 49.128ZM34.2697 35.664L33.2535 34.5607L34.2697 35.664ZM47.8058 35.664L48.822 34.5607L47.8058 35.664ZM47.8058 49.128L48.8374 50.2169L48.8448 50.2099L48.8522 50.2027L47.8058 49.128ZM41.0378 50.22C38.7041 50.22 36.8261 49.4836 35.3014 48.0391L33.2381 50.2169C35.3614 52.2284 37.9954 53.22 41.0378 53.22V50.22ZM35.3162 48.0533C33.8054 46.5823 33.0337 44.7248 33.0337 42.36H30.0338C30.0338 45.4672 31.0861 48.1217 33.2233 50.2027L35.3162 48.0533ZM33.0337 42.36C33.0337 39.9383 33.8098 38.1269 35.286 36.7673L33.2535 34.5607C31.0817 36.5611 30.0338 39.2137 30.0338 42.36H33.0337ZM35.286 36.7673C36.8087 35.3648 38.6918 34.644 41.0378 34.644V31.644C38.0077 31.644 35.3788 32.6032 33.2535 34.5607L35.286 36.7673ZM41.0378 34.644C43.3837 34.644 45.2668 35.3648 46.7895 36.7673L48.822 34.5607C46.6967 32.6032 44.0678 31.644 41.0378 31.644V34.644ZM46.7895 36.7673C48.2657 38.1269 49.0418 39.9383 49.0418 42.36H52.0418C52.0418 39.2137 50.9938 36.5611 48.822 34.5607L46.7895 36.7673ZM49.0418 42.36C49.0418 44.7248 48.2701 46.5823 46.7593 48.0533L48.8522 50.2027C50.9894 48.1217 52.0418 45.4672 52.0418 42.36H49.0418ZM46.7741 48.0391C45.2494 49.4836 43.3714 50.22 41.0378 50.22V53.22C44.0801 53.22 46.7141 52.2284 48.8374 50.2169L46.7741 48.0391Z" fill="#E2E2E2" mask="url(#path-1-outside-1_32_78)"/>
</svg>
