<svg width="30" height="23" viewBox="0 0 30 23" fill="none" xmlns="http://www.w3.org/2000/svg">
<g id="&#240;&#159;&#166;&#134; icon &#34;Address Card&#34;">
<path id="Vector" d="M26.931 0H2.44828C1.09662 0 0 1.09662 0 2.44828V20.4023C0 21.754 1.09662 22.8506 2.44828 22.8506H26.931C28.2827 22.8506 29.3793 21.754 29.3793 20.4023V2.44828C29.3793 1.09662 28.2827 0 26.931 0ZM8.97701 4.89655C10.7775 4.89655 12.2414 6.36042 12.2414 8.16092C12.2414 9.96142 10.7775 11.4253 8.97701 11.4253C7.17651 11.4253 5.71264 9.96142 5.71264 8.16092C5.71264 6.36042 7.17651 4.89655 8.97701 4.89655ZM14.6897 16.9747C14.6897 17.5154 14.1796 17.954 13.5471 17.954H4.4069C3.77442 17.954 3.26437 17.5154 3.26437 16.9747V15.9954C3.26437 14.3734 4.79964 13.0575 6.69195 13.0575H6.94698C7.57435 13.3176 8.25783 13.4655 8.97701 13.4655C9.69619 13.4655 10.3848 13.3176 11.007 13.0575H11.2621C13.1544 13.0575 14.6897 14.3734 14.6897 15.9954V16.9747ZM26.1149 14.2816C26.1149 14.506 25.9313 14.6897 25.7069 14.6897H18.3621C18.1376 14.6897 17.954 14.506 17.954 14.2816V13.4655C17.954 13.2411 18.1376 13.0575 18.3621 13.0575H25.7069C25.9313 13.0575 26.1149 13.2411 26.1149 13.4655V14.2816ZM26.1149 11.0172C26.1149 11.2417 25.9313 11.4253 25.7069 11.4253H18.3621C18.1376 11.4253 17.954 11.2417 17.954 11.0172V10.2011C17.954 9.97672 18.1376 9.7931 18.3621 9.7931H25.7069C25.9313 9.7931 26.1149 9.97672 26.1149 10.2011V11.0172ZM26.1149 7.75287C26.1149 7.9773 25.9313 8.16092 25.7069 8.16092H18.3621C18.1376 8.16092 17.954 7.9773 17.954 7.75287V6.93678C17.954 6.71236 18.1376 6.52874 18.3621 6.52874H25.7069C25.9313 6.52874 26.1149 6.71236 26.1149 6.93678V7.75287Z" fill="white"/>
</g>
</svg>
