<svg width="40" height="40" viewBox="0 0 40 40" fill="none" xmlns="http://www.w3.org/2000/svg">
<rect width="40" height="40" fill="white"/>
<path d="M31.931 9H7.44828C6.09662 9 5 10.0966 5 11.4483V29.4023C5 30.7539 6.09662 31.8506 7.44828 31.8506H31.931C33.2827 31.8506 34.3793 30.7539 34.3793 29.4023V11.4483C34.3793 10.0966 33.2827 9 31.931 9ZM13.977 13.8966C15.7775 13.8966 17.2414 15.3604 17.2414 17.1609C17.2414 18.9614 15.7775 20.4253 13.977 20.4253C12.1765 20.4253 10.7126 18.9614 10.7126 17.1609C10.7126 15.3604 12.1765 13.8966 13.977 13.8966ZM19.6897 25.9747C19.6897 26.5154 19.1796 26.954 18.5471 26.954H9.4069C8.77442 26.954 8.26437 26.5154 8.26437 25.9747V24.9954C8.26437 23.3734 9.79964 22.0575 11.692 22.0575H11.947C12.5744 22.3176 13.2578 22.4655 13.977 22.4655C14.6962 22.4655 15.3848 22.3176 16.007 22.0575H16.2621C18.1544 22.0575 19.6897 23.3734 19.6897 24.9954V25.9747ZM31.1149 23.2816C31.1149 23.506 30.9313 23.6897 30.7069 23.6897H23.3621C23.1376 23.6897 22.954 23.506 22.954 23.2816V22.4655C22.954 22.2411 23.1376 22.0575 23.3621 22.0575H30.7069C30.9313 22.0575 31.1149 22.2411 31.1149 22.4655V23.2816ZM31.1149 20.0172C31.1149 20.2417 30.9313 20.4253 30.7069 20.4253H23.3621C23.1376 20.4253 22.954 20.2417 22.954 20.0172V19.2011C22.954 18.9767 23.1376 18.7931 23.3621 18.7931H30.7069C30.9313 18.7931 31.1149 18.9767 31.1149 19.2011V20.0172ZM31.1149 16.7529C31.1149 16.9773 30.9313 17.1609 30.7069 17.1609H23.3621C23.1376 17.1609 22.954 16.9773 22.954 16.7529V15.9368C22.954 15.7124 23.1376 15.5287 23.3621 15.5287H30.7069C30.9313 15.5287 31.1149 15.7124 31.1149 15.9368V16.7529Z" fill="black"/>
</svg>
