<svg width="40" height="40" viewBox="0 0 40 40" fill="none" xmlns="http://www.w3.org/2000/svg">
<rect width="40" height="40" fill="white"/>
<path d="M12.5587 19.393L19.3927 12.56L17.1523 10.3195L14.0202 13.4517C13.9828 13.4891 13.9384 13.5188 13.8896 13.539C13.8408 13.5593 13.7884 13.5697 13.7355 13.5697C13.6827 13.5697 13.6303 13.5593 13.5815 13.539C13.5326 13.5188 13.4883 13.4891 13.4509 13.4517L12.8817 12.8824C12.7242 12.725 12.7242 12.4701 12.8817 12.3132L16.0138 9.18102L14.3055 7.47226C13.6764 6.84309 12.6567 6.84309 12.0275 7.47226L7.47201 12.0278C6.84335 12.6569 6.84284 13.6766 7.47201 14.3058L12.5587 19.393ZM32.2854 13.4618C33.238 12.5092 33.2375 10.9649 32.2854 10.0123L29.9876 7.71448C29.0349 6.76184 27.4902 6.76184 26.537 7.71448L24.2001 10.0509L29.9485 15.7992L32.2854 13.4618ZM23.051 11.2006L7.96915 26.2803L7.01651 31.7362C6.88803 32.472 7.52888 33.1129 8.2652 32.9834L13.7216 32.0267L28.7993 16.9484L23.051 11.2006ZM32.5281 25.6948L30.8199 23.9866L27.6877 27.1187C27.5303 27.2761 27.2754 27.2761 27.1185 27.1187L26.5492 26.5495C26.3923 26.3921 26.3923 26.1371 26.5492 25.9802L29.6814 22.8481L27.4399 20.6066L20.6059 27.4397L25.6946 32.5279C26.3238 33.157 27.3434 33.157 27.9726 32.5279L32.5281 27.9729C33.1573 27.3437 33.1573 26.324 32.5281 25.6948Z" fill="black"/>
</svg>
