<svg width="40" height="40" viewBox="0 0 40 40" fill="none" xmlns="http://www.w3.org/2000/svg">
<rect width="40" height="40" fill="white"/>
<path d="M19.0092 8.25379C19.0491 8.4879 19.8112 12.961 19.8112 14.6695C19.8112 17.2746 18.4264 19.1326 16.3792 19.8798L17.0217 31.7398C17.0566 32.4222 16.5137 33.0001 15.8263 33.0001H12.6383C11.9559 33.0001 11.408 32.4272 11.4429 31.7398L12.0854 19.8798C10.0332 19.1326 8.65344 17.2696 8.65344 14.6695C8.65344 12.956 9.41556 8.4879 9.4554 8.25379C9.6148 7.24262 11.7119 7.22767 11.8414 8.30858V15.3419C11.9061 15.5113 12.5935 15.5013 12.6383 15.3419C12.7081 14.0817 13.0319 8.4082 13.0368 8.27869C13.2012 7.24262 15.2634 7.24262 15.4228 8.27869C15.4328 8.41318 15.7516 14.0817 15.8213 15.3419C15.8661 15.5013 16.5585 15.5113 16.6183 15.3419V8.30858C16.7478 7.23265 18.8498 7.24262 19.0092 8.25379ZM24.9467 22.4849L24.1996 31.705C24.1398 32.4023 24.6927 33.0001 25.3901 33.0001H28.1795C28.842 33.0001 29.375 32.4671 29.375 31.8046V8.69213C29.375 8.03462 28.842 7.49665 28.1795 7.49665C24.0701 7.49665 17.1513 16.388 24.9467 22.4849Z" fill="black"/>
</svg>
