<svg width="26" height="26" viewBox="0 0 26 26" fill="none" xmlns="http://www.w3.org/2000/svg">
<g id="&#240;&#159;&#166;&#134; icon &#34;Pencil Ruler&#34;">
<path id="Vector" d="M5.55869 12.393L12.3927 5.55996L10.1523 3.31952L7.02015 6.45166C6.9828 6.48909 6.93844 6.51878 6.8896 6.53903C6.84076 6.55929 6.7884 6.56972 6.73553 6.56972C6.68265 6.56972 6.6303 6.55929 6.58146 6.53903C6.53262 6.51878 6.48826 6.48909 6.4509 6.45166L5.88165 5.88241C5.72424 5.72499 5.72424 5.47008 5.88165 5.31316L9.0138 2.18102L7.30554 0.472259C6.67637 -0.156912 5.6567 -0.156912 5.02753 0.472259L0.472008 5.02778C-0.156655 5.65695 -0.157163 6.67662 0.472008 7.30579L5.55869 12.393ZM25.2854 6.46182C26.238 5.50918 26.2375 3.96494 25.2854 3.0123L22.9876 0.714482C22.0349 -0.238161 20.4902 -0.238161 19.537 0.714482L17.2001 3.05089L22.9485 8.79924L25.2854 6.46182ZM16.051 4.20056L0.969149 19.2803L0.0165067 24.7362C-0.111968 25.472 0.528882 26.1129 1.2652 25.9834L6.72156 25.0267L21.7993 9.94841L16.051 4.20056ZM25.5281 18.6948L23.8199 16.9866L20.6877 20.1187C20.5303 20.2761 20.2754 20.2761 20.1185 20.1187L19.5492 19.5495C19.3923 19.3921 19.3923 19.1371 19.5492 18.9802L22.6814 15.8481L20.4399 13.6066L13.6059 20.4397L18.6946 25.5279C19.3238 26.157 20.3434 26.157 20.9726 25.5279L25.5281 20.9729C26.1573 20.3437 26.1573 19.324 25.5281 18.6948Z" fill="white"/>
</g>
</svg>
