<svg width="40" height="40" viewBox="0 0 40 40" fill="none" xmlns="http://www.w3.org/2000/svg">
<rect width="40" height="40" fill="white"/>
<path d="M19.5688 11.5821C15.1518 11.5821 11.5891 15.1448 11.5891 19.5618C11.5891 23.9788 15.1518 27.5415 19.5688 27.5415C23.9857 27.5415 27.5485 23.9788 27.5485 19.5618C27.5485 15.1448 23.9857 11.5821 19.5688 11.5821ZM19.5688 24.7497C16.7144 24.7497 14.3809 22.4231 14.3809 19.5618C14.3809 16.7005 16.7075 14.374 19.5688 14.374C22.4301 14.374 24.7566 16.7005 24.7566 19.5618C24.7566 22.4231 22.4231 24.7497 19.5688 24.7497ZM29.7361 11.2557C29.7361 12.2905 28.9027 13.1169 27.8749 13.1169C26.8401 13.1169 26.0136 12.2835 26.0136 11.2557C26.0136 10.2278 26.847 9.39446 27.8749 9.39446C28.9027 9.39446 29.7361 10.2278 29.7361 11.2557ZM35.0212 13.1447C34.9031 10.6515 34.3336 8.44301 32.5071 6.62344C30.6876 4.80387 28.4791 4.23439 25.9859 4.10938C23.4162 3.96354 15.7143 3.96354 13.1447 4.10938C10.6584 4.22745 8.44995 4.79693 6.62344 6.61649C4.79693 8.43606 4.23439 10.6445 4.10938 13.1378C3.96354 15.7074 3.96354 23.4093 4.10938 25.9789C4.22745 28.4721 4.79693 30.6806 6.62344 32.5002C8.44995 34.3197 10.6515 34.8892 13.1447 35.0142C15.7143 35.1601 23.4162 35.1601 25.9859 35.0142C28.4791 34.8962 30.6876 34.3267 32.5071 32.5002C34.3267 30.6806 34.8962 28.4721 35.0212 25.9789C35.167 23.4093 35.167 15.7143 35.0212 13.1447ZM31.7015 28.736C31.1598 30.0972 30.1111 31.1459 28.743 31.6946C26.6942 32.5071 21.8328 32.3196 19.5688 32.3196C17.3047 32.3196 12.4363 32.5002 10.3945 31.6946C9.03332 31.1529 7.98464 30.1042 7.43599 28.736C6.62344 26.6873 6.81095 21.8258 6.81095 19.5618C6.81095 17.2978 6.63038 12.4294 7.43599 10.3876C7.9777 9.02638 9.02638 7.9777 10.3945 7.42905C12.4433 6.61649 17.3047 6.80401 19.5688 6.80401C21.8328 6.80401 26.7012 6.62344 28.743 7.42905C30.1042 7.97075 31.1529 9.01943 31.7015 10.3876C32.5141 12.4363 32.3266 17.2978 32.3266 19.5618C32.3266 21.8258 32.5141 26.6942 31.7015 28.736Z" fill="black"/>
</svg>
