<svg width="40" height="40" viewBox="0 0 40 40" fill="none" xmlns="http://www.w3.org/2000/svg">
<rect width="40" height="40" fill="white"/>
<path d="M16.2583 20.3488C16.5991 20.6896 17.1515 20.6896 17.4923 20.3488L18.109 19.7321C18.4498 19.3913 18.4498 18.8389 18.109 18.4981L16.1613 16.5509L18.1085 14.6032C18.4493 14.2624 18.4493 13.71 18.1085 13.3692L17.4917 12.7525C17.1509 12.4117 16.5986 12.4117 16.2578 12.7525L13.0766 15.9337C12.7358 16.2745 12.7358 16.8268 13.0766 17.1676L16.2583 20.3488ZM21.4936 19.7327L22.1103 20.3494C22.4511 20.6902 23.0034 20.6902 23.3442 20.3494L26.5254 17.1682C26.8662 16.8274 26.8662 16.275 26.5254 15.9342L23.3442 12.7531C23.0034 12.4123 22.4511 12.4123 22.1103 12.7531L21.4936 13.3698C21.1528 13.7106 21.1528 14.2629 21.4936 14.6037L23.4408 16.5509L21.4936 18.4987C21.1528 18.8395 21.1528 19.3919 21.4936 19.7327ZM36.3775 28.7652H23.1567C23.1163 29.8454 22.3546 30.5101 21.3714 30.5101H18.0561C17.037 30.5101 16.2556 29.5575 16.2692 28.7652H3.22447C2.74462 28.7652 2.35202 29.1578 2.35202 29.6377V30.5101C2.35202 32.4295 3.92243 33.9999 5.84182 33.9999H33.7602C35.6796 33.9999 37.25 32.4295 37.25 30.5101V29.6377C37.25 29.1578 36.8574 28.7652 36.3775 28.7652ZM33.7602 8.69889C33.7602 7.25935 32.5824 6.08154 31.1429 6.08154H8.45917C7.01962 6.08154 5.84182 7.25935 5.84182 8.69889V27.0203H33.7602V8.69889ZM30.2704 23.5305H9.33162V9.57134H30.2704V23.5305Z" fill="black"/>
</svg>
