<svg width="66" height="53" viewBox="0 0 66 53" fill="none" xmlns="http://www.w3.org/2000/svg">
<mask id="path-1-outside-1_32_83" maskUnits="userSpaceOnUse" x="-2" y="-2" width="70" height="57" fill="black">
<rect fill="white" x="-2" y="-2" width="70" height="57"/>
<path d="M3.016 52V41.56L21.232 24.712C22.384 23.608 23.224 22.648 23.752 21.832C24.328 21.016 24.712 20.296 24.904 19.672C25.096 19 25.192 18.376 25.192 17.8C25.192 16.552 24.784 15.592 23.968 14.92C23.152 14.2 21.928 13.84 20.296 13.84C18.808 13.84 17.392 14.248 16.048 15.064C14.704 15.832 13.648 16.984 12.88 18.52L0.064 12.112C1.888 8.656 4.624 5.848 8.272 3.688C11.92 1.528 16.456 0.447999 21.88 0.447999C25.864 0.447999 29.392 1.096 32.464 2.392C35.536 3.688 37.936 5.512 39.664 7.864C41.392 10.216 42.256 13 42.256 16.216C42.256 17.848 42.04 19.48 41.608 21.112C41.224 22.744 40.408 24.472 39.16 26.296C37.912 28.072 36.064 30.064 33.616 32.272L19.936 44.728L17.272 38.824H43.408V52H3.016ZM56.4518 52.72C53.7638 52.72 51.5078 51.856 49.6838 50.128C47.8598 48.352 46.9478 46.096 46.9478 43.36C46.9478 40.576 47.8598 38.344 49.6838 36.664C51.5078 34.984 53.7638 34.144 56.4518 34.144C59.1398 34.144 61.3958 34.984 63.2198 36.664C65.0438 38.344 65.9558 40.576 65.9558 43.36C65.9558 46.096 65.0438 48.352 63.2198 50.128C61.3958 51.856 59.1398 52.72 56.4518 52.72Z"/>
</mask>
<path d="M3.016 52H1.516V53.5H3.016V52ZM3.016 41.56L1.9975 40.4588L1.516 40.9041V41.56H3.016ZM21.232 24.712L22.2505 25.8132L22.2603 25.8042L22.2699 25.795L21.232 24.712ZM23.752 21.832L22.5265 20.967L22.5091 20.9917L22.4926 21.0171L23.752 21.832ZM24.904 19.672L26.3377 20.1131L26.3421 20.0986L26.3463 20.0841L24.904 19.672ZM23.968 14.92L22.9756 16.0448L22.9947 16.0617L23.0144 16.0779L23.968 14.92ZM16.048 15.064L16.7922 16.3664L16.8095 16.3565L16.8265 16.3462L16.048 15.064ZM12.88 18.52L12.2092 19.8616L13.5508 20.5325L14.2216 19.1908L12.88 18.52ZM0.064 12.112L-1.26258 11.4119L-1.97827 12.7679L-0.60682 13.4536L0.064 12.112ZM8.272 3.688L9.03624 4.97871L9.03624 4.97871L8.272 3.688ZM32.464 2.392L31.8809 3.77405H31.881L32.464 2.392ZM39.664 7.864L38.4552 8.75211L39.664 7.864ZM41.608 21.112L40.1579 20.7282L40.1526 20.7482L40.1479 20.7684L41.608 21.112ZM39.16 26.296L40.3873 27.1584L40.3927 27.1508L40.398 27.143L39.16 26.296ZM33.616 32.272L32.6113 31.1581L32.6061 31.1629L33.616 32.272ZM19.936 44.728L18.5687 45.3449L19.4184 47.2279L20.9459 45.8371L19.936 44.728ZM17.272 38.824V37.324H14.9495L15.9047 39.4409L17.272 38.824ZM43.408 38.824H44.908V37.324H43.408V38.824ZM43.408 52V53.5H44.908V52H43.408ZM4.516 52V41.56H1.516V52H4.516ZM4.0345 42.6612L22.2505 25.8132L20.2135 23.6108L1.9975 40.4588L4.0345 42.6612ZM22.2699 25.795C23.4596 24.6548 24.3929 23.6026 25.0114 22.6469L22.4926 21.0171C22.0551 21.6934 21.3084 22.5612 20.1941 23.629L22.2699 25.795ZM24.9775 22.697C25.6018 21.8126 26.0813 20.9464 26.3377 20.1131L23.4703 19.2309C23.3427 19.6456 23.0543 20.2194 22.5265 20.967L24.9775 22.697ZM26.3463 20.0841C26.5687 19.3055 26.692 18.5413 26.692 17.8H23.692C23.692 18.2107 23.6233 18.6945 23.4617 19.2599L26.3463 20.0841ZM26.692 17.8C26.692 16.1937 26.1475 14.7717 24.9216 13.7621L23.0144 16.0779C23.4205 16.4123 23.692 16.9103 23.692 17.8H26.692ZM24.9604 13.7952C23.7616 12.7375 22.1162 12.34 20.296 12.34V15.34C21.7398 15.34 22.5424 15.6625 22.9756 16.0448L24.9604 13.7952ZM20.296 12.34C18.5177 12.34 16.8343 12.8318 15.2695 13.7818L16.8265 16.3462C17.9497 15.6642 19.0983 15.34 20.296 15.34V12.34ZM15.3038 13.7616C13.6749 14.6924 12.4237 16.0784 11.5384 17.8492L14.2216 19.1908C14.8723 17.8896 15.7331 16.9716 16.7922 16.3664L15.3038 13.7616ZM13.5508 17.1784L0.73482 10.7704L-0.60682 13.4536L12.2092 19.8616L13.5508 17.1784ZM1.39058 12.8121C3.07434 9.62185 5.60564 7.00998 9.03624 4.97871L7.50776 2.39729C3.64236 4.68601 0.701662 7.69014 -1.26258 11.4119L1.39058 12.8121ZM9.03624 4.97871C12.3967 2.98899 16.6511 1.948 21.88 1.948V-1.052C16.2609 -1.052 11.4433 0.0670109 7.50776 2.39729L9.03624 4.97871ZM21.88 1.948C25.702 1.948 29.0257 2.56951 31.8809 3.77405L33.0471 1.00995C29.7583 -0.377508 26.026 -1.052 21.88 -1.052V1.948ZM31.881 3.77405C34.7398 4.98012 36.9092 6.6478 38.4552 8.75211L40.8728 6.97588C38.9629 4.37619 36.3322 2.39587 33.0471 1.00995L31.881 3.77405ZM38.4552 8.75211C39.9747 10.8203 40.756 13.2852 40.756 16.216H43.756C43.756 12.7148 42.8093 9.61167 40.8728 6.97588L38.4552 8.75211ZM40.756 16.216C40.756 17.714 40.5579 19.2171 40.1579 20.7282L43.0581 21.4958C43.5221 19.7429 43.756 17.982 43.756 16.216H40.756ZM40.1479 20.7684C39.8174 22.1731 39.097 23.7317 37.922 25.449L40.398 27.143C41.719 25.2123 42.6306 23.3149 43.0681 21.4556L40.1479 20.7684ZM37.9327 25.4336C36.7734 27.0834 35.0142 28.9909 32.6113 31.1581L34.6207 33.3859C37.1138 31.1371 39.0506 29.0606 40.3873 27.1584L37.9327 25.4336ZM32.6061 31.1629L18.9261 43.6189L20.9459 45.8371L34.6259 33.3811L32.6061 31.1629ZM21.3033 44.1111L18.6393 38.2071L15.9047 39.4409L18.5687 45.3449L21.3033 44.1111ZM17.272 40.324H43.408V37.324H17.272V40.324ZM41.908 38.824V52H44.908V38.824H41.908ZM43.408 50.5H3.016V53.5H43.408V50.5ZM49.6838 50.128L48.6374 51.2027L48.6447 51.2099L48.6522 51.2169L49.6838 50.128ZM49.6838 36.664L48.6676 35.5607L49.6838 36.664ZM63.2198 36.664L64.236 35.5607L63.2198 36.664ZM63.2198 50.128L64.2514 51.2169L64.2589 51.2099L64.2662 51.2027L63.2198 50.128ZM56.4518 51.22C54.1182 51.22 52.2402 50.4836 50.7154 49.0391L48.6522 51.2169C50.7755 53.2284 53.4094 54.22 56.4518 54.22V51.22ZM50.7302 49.0533C49.2194 47.5823 48.4478 45.7248 48.4478 43.36H45.4478C45.4478 46.4672 46.5002 49.1217 48.6374 51.2027L50.7302 49.0533ZM48.4478 43.36C48.4478 40.9383 49.2239 39.1269 50.7 37.7673L48.6676 35.5607C46.4957 37.5611 45.4478 40.2137 45.4478 43.36H48.4478ZM50.7 37.7673C52.2227 36.3648 54.1059 35.644 56.4518 35.644V32.644C53.4217 32.644 50.7929 33.6032 48.6676 35.5607L50.7 37.7673ZM56.4518 35.644C58.7977 35.644 60.6809 36.3648 62.2036 37.7673L64.236 35.5607C62.1107 33.6032 59.4819 32.644 56.4518 32.644V35.644ZM62.2036 37.7673C63.6797 39.1269 64.4558 40.9383 64.4558 43.36H67.4558C67.4558 40.2137 66.4079 37.5611 64.236 35.5607L62.2036 37.7673ZM64.4558 43.36C64.4558 45.7248 63.6842 47.5823 62.1734 49.0533L64.2662 51.2027C66.4034 49.1217 67.4558 46.4672 67.4558 43.36H64.4558ZM62.1882 49.0391C60.6635 50.4836 58.7854 51.22 56.4518 51.22V54.22C59.4942 54.22 62.1282 53.2284 64.2514 51.2169L62.1882 49.0391Z" fill="#E2E2E2" mask="url(#path-1-outside-1_32_83)"/>
</svg>
