<svg width="40" height="32" viewBox="0 0 40 32" fill="none" xmlns="http://www.w3.org/2000/svg">
<g clip-path="url(#clip0_36_358)">
<path d="M24 2H32C33.1063 2 34 2.89375 34 4C34 5.10625 33.1063 6 32 6H24.9C24.575 7.6125 23.4688 8.94375 22 9.58125V28H32C33.1063 28 34 28.8937 34 30C34 31.1063 33.1063 32 32 32H20H8.00001C6.89376 32 6.00001 31.1063 6.00001 30C6.00001 28.8937 6.89376 28 8.00001 28H18V9.58125C16.5313 8.9375 15.425 7.60625 15.1 6H8.00001C6.89376 6 6.00001 5.10625 6.00001 4C6.00001 2.89375 6.89376 2 8.00001 2H16C16.9125 0.7875 18.3625 0 20 0C21.6375 0 23.0875 0.7875 24 2ZM27.475 20H36.525L32 12.2375L27.475 20ZM32 26C28.0688 26 24.8 23.875 24.125 21.0688C23.9625 20.3813 24.1875 19.675 24.5438 19.0625L30.4938 8.8625C30.8063 8.325 31.3813 8 32 8C32.6188 8 33.1938 8.33125 33.5063 8.8625L39.4563 19.0625C39.8125 19.675 40.0375 20.3813 39.875 21.0688C39.2 23.875 35.9313 26 32 26ZM7.92501 12.2375L3.40001 20H12.4563L7.92501 12.2375ZM0.05626 21.0688C-0.10624 20.3813 0.11876 19.675 0.47501 19.0625L6.42501 8.8625C6.73751 8.325 7.31251 8 7.93126 8C8.55001 8 9.12501 8.33125 9.43751 8.8625L15.3875 19.0625C15.7438 19.675 15.9688 20.3813 15.8063 21.0688C15.125 23.875 11.8563 26 7.92501 26C3.99376 26 0.73126 23.875 0.05626 21.0688Z" fill="#E2E2E2"/>
</g>
<defs>
<clipPath id="clip0_36_358">
<rect width="40" height="32" fill="white"/>
</clipPath>
</defs>
</svg>
