<svg width="34" height="34" viewBox="0 0 34 34" fill="none" xmlns="http://www.w3.org/2000/svg">
<path d="M8.97812 7.79609L7.24492 12.75H26.7551L25.0219 7.79609C24.723 6.94609 23.9195 6.375 23.0164 6.375H10.9836C10.0805 6.375 9.27695 6.94609 8.97812 7.79609ZM2.62969 13.0688L4.96719 6.39492C5.86367 3.83828 8.27422 2.125 10.9836 2.125H23.0164C25.7258 2.125 28.1363 3.83828 29.0328 6.39492L31.3703 13.0688C32.9109 13.7063 34 15.227 34 17V26.5625V29.75C34 30.9254 33.0504 31.875 31.875 31.875H29.75C28.5746 31.875 27.625 30.9254 27.625 29.75V26.5625H6.375V29.75C6.375 30.9254 5.42539 31.875 4.25 31.875H2.125C0.949609 31.875 0 30.9254 0 29.75V26.5625V17C0 15.227 1.08906 13.7063 2.62969 13.0688ZM8.5 19.125C8.5 18.5614 8.27612 18.0209 7.8776 17.6224C7.47909 17.2239 6.93859 17 6.375 17C5.81141 17 5.27091 17.2239 4.8724 17.6224C4.47388 18.0209 4.25 18.5614 4.25 19.125C4.25 19.6886 4.47388 20.2291 4.8724 20.6276C5.27091 21.0261 5.81141 21.25 6.375 21.25C6.93859 21.25 7.47909 21.0261 7.8776 20.6276C8.27612 20.2291 8.5 19.6886 8.5 19.125ZM27.625 21.25C28.1886 21.25 28.7291 21.0261 29.1276 20.6276C29.5261 20.2291 29.75 19.6886 29.75 19.125C29.75 18.5614 29.5261 18.0209 29.1276 17.6224C28.7291 17.2239 28.1886 17 27.625 17C27.0614 17 26.5209 17.2239 26.1224 17.6224C25.7239 18.0209 25.5 18.5614 25.5 19.125C25.5 19.6886 25.7239 20.2291 26.1224 20.6276C26.5209 21.0261 27.0614 21.25 27.625 21.25Z" fill="#E2E2E2"/>
</svg>
