<svg width="40" height="32" viewBox="0 0 40 32" fill="none" xmlns="http://www.w3.org/2000/svg">
<g clip-path="url(#clip0_36_354)">
<path d="M20 2C19.4937 2 18.9937 2.0875 18.5187 2.25625L0.987485 8.5875C0.393735 8.80625 -1.45456e-05 9.36875 -1.45456e-05 10C-1.45456e-05 10.6313 0.393735 11.1938 0.987485 11.4125L4.60624 12.7188C3.58123 14.3313 2.99999 16.2375 2.99999 18.2437V20C2.99999 21.775 2.32499 23.6062 1.60624 25.05C1.19999 25.8625 0.737485 26.6625 0.199985 27.4C-1.45435e-05 27.6687 -0.0562645 28.0187 0.0562355 28.3375C0.168735 28.6562 0.431235 28.8938 0.756235 28.975L4.75624 29.975C5.01873 30.0438 5.29999 29.9937 5.53124 29.85C5.76249 29.7063 5.92498 29.4688 5.97499 29.2C6.51249 26.525 6.24374 24.125 5.84374 22.4062C5.64374 21.5187 5.37499 20.6125 4.99999 19.7812V18.2437C4.99999 16.3562 5.63749 14.575 6.74374 13.15C7.54999 12.1812 8.59374 11.4 9.81874 10.9187L19.6312 7.0625C20.1437 6.8625 20.725 7.1125 20.925 7.625C21.125 8.1375 20.875 8.71875 20.3625 8.91875L10.55 12.775C9.77499 13.0812 9.09374 13.55 8.53749 14.125L18.5125 17.725C18.9875 17.8938 19.4875 17.9813 19.9937 17.9813C20.5 17.9813 21 17.8938 21.475 17.725L39.0125 11.4125C39.6062 11.2 40 10.6313 40 10C40 9.36875 39.6062 8.80625 39.0125 8.5875L21.4812 2.25625C21.0062 2.0875 20.5062 2 20 2ZM7.99999 25.5C7.99999 27.7062 13.375 30 20 30C26.625 30 32 27.7062 32 25.5L31.0437 16.4125L22.1562 19.625C21.4625 19.875 20.7312 20 20 20C19.2687 20 18.5312 19.875 17.8437 19.625L8.95624 16.4125L7.99999 25.5Z" fill="#E2E2E2"/>
</g>
<defs>
<clipPath id="clip0_36_354">
<rect width="40" height="32" fill="white"/>
</clipPath>
</defs>
</svg>
