<svg width="60" height="63" viewBox="0 0 60 63" fill="none" xmlns="http://www.w3.org/2000/svg">
<g id="icon">
<rect id="stroke" x="2.5" y="2.5" width="55" height="58" stroke="#E2E2E2" stroke-width="5"/>
<g id="&#240;&#159;&#166;&#134; icon &#34;Cut&#34;">
<path id="Vector" d="M34.2744 31.5L47.0072 40.7874C47.3661 41.0491 47.3661 41.4732 47.0072 41.7344C44.4977 43.5647 40.4281 43.5647 37.9186 41.7344L29.0809 35.2879L27.1789 36.6752C27.5086 37.2846 27.6899 37.9481 27.6899 38.6429C27.6899 41.6016 24.4015 44 20.345 44C16.2884 44 13 41.6016 13 38.6429C13 35.6842 16.2884 33.2857 20.345 33.2857C20.6923 33.2857 21.0328 33.3036 21.3671 33.3376L23.8866 31.5L21.3671 29.6624C21.0328 29.6964 20.6916 29.7143 20.345 29.7143C16.2884 29.7143 13 27.3158 13 24.3571C13 21.3984 16.2884 19 20.345 19C24.4015 19 27.6899 21.3984 27.6899 24.3571C27.6899 25.0519 27.5086 25.7154 27.1789 26.3248L29.0809 27.7121L37.9186 21.2656C40.4281 19.4353 44.4977 19.4353 47.0072 21.2656C47.3661 21.5268 47.3661 21.9509 47.0072 22.2126L34.2744 31.5ZM20.345 36.8571C18.9953 36.8571 17.8966 37.6585 17.8966 38.6429C17.8966 39.6272 18.9953 40.4286 20.345 40.4286C21.6946 40.4286 22.7933 39.6272 22.7933 38.6429C22.7933 37.6585 21.6946 36.8571 20.345 36.8571ZM20.345 22.5714C18.9953 22.5714 17.8966 23.3728 17.8966 24.3571C17.8966 25.3415 18.9953 26.1429 20.345 26.1429C21.6946 26.1429 22.7933 25.3415 22.7933 24.3571C22.7933 23.3728 21.6946 22.5714 20.345 22.5714Z" fill="#E2E2E2"/>
</g>
</g>
</svg>
