<svg width="60" height="63" viewBox="0 0 60 63" fill="none" xmlns="http://www.w3.org/2000/svg">
<g id="icon">
<rect id="stroke" x="2.5" y="2.5" width="55" height="58" stroke="#E2E2E2" stroke-width="5"/>
<g id="&#240;&#159;&#166;&#134; icon &#34;Lightbulb&#34;">
<path id="Vector" d="M23.1184 44.3963C23.1192 44.7894 23.2764 45.1744 23.5714 45.5019L25.0157 47.1075C25.2624 47.382 25.5971 47.6071 25.9899 47.7628C26.3827 47.9185 26.8215 48 27.2671 48H32.4825C32.9282 48 33.3669 47.9185 33.7597 47.7628C34.1525 47.6071 34.4872 47.382 34.7339 47.1075L36.1783 45.5019C36.4731 45.1744 36.6307 44.7898 36.6313 44.3963L36.6346 41.9995H23.1142L23.1184 44.3963ZM15 26.9998C15 29.7729 16.3902 32.3028 18.6814 34.2359C20.0776 35.414 22.2614 37.8752 23.0939 39.9514C23.0972 39.9677 23.0998 39.9839 23.1032 40.0002H36.6456C36.649 39.9839 36.6515 39.9683 36.6549 39.9514C37.4874 37.8752 39.6712 35.414 41.0674 34.2359C43.3585 32.3028 44.7488 29.7729 44.7488 26.9998C44.7488 20.9131 38.0646 15.9813 29.8279 16.0001C21.2067 16.0194 15 21.1856 15 26.9998ZM29.8744 21.9999C26.1465 21.9999 23.1133 24.243 23.1133 26.9998C23.1133 27.5523 22.5082 27.9998 21.7611 27.9998C21.014 27.9998 20.4089 27.5523 20.4089 26.9998C20.4089 23.1399 24.6548 20 29.8744 20C30.6215 20 31.2266 20.4475 31.2266 20.9999C31.2266 21.5524 30.6215 21.9999 29.8744 21.9999Z" fill="#E2E2E2"/>
</g>
</g>
</svg>
