<svg width="60" height="63" viewBox="0 0 60 63" fill="none" xmlns="http://www.w3.org/2000/svg">
<g id="icon">
<rect id="stroke" x="2.5" y="2.5" width="55" height="58" stroke="#E2E2E2" stroke-width="5"/>
<g id="&#240;&#159;&#166;&#134; icon &#34;Balance Scale&#34;">
<path id="Vector" d="M25.424 35.891H25.4227C25.4227 35.0295 25.5087 35.4262 19.9662 26.2261C18.8339 24.3471 15.5914 24.3433 14.4571 26.2261C8.86784 35.505 9.00128 35.0566 9.00128 35.891H9C9 38.2435 12.6768 40.1508 17.212 40.1508C21.7472 40.1508 25.424 38.2435 25.424 35.891ZM17.212 27.3715L21.8313 35.0391H12.5928L17.212 27.3715ZM50.0587 35.891C50.0587 35.0295 50.1447 35.4262 44.6022 26.2261C43.4699 24.3471 40.2274 24.3433 39.0931 26.2261C33.5038 35.505 33.6373 35.0566 33.6373 35.891H33.636C33.636 38.2435 37.3128 40.1508 41.848 40.1508C46.3832 40.1508 50.06 38.2435 50.06 35.891H50.0587ZM37.2288 35.0391L41.848 27.3715L46.4673 35.0391H37.2288ZM42.8745 41.8547H31.583V26.1601C33.0913 25.6122 34.2237 24.4839 34.5592 23.1117H42.8745C43.4416 23.1117 43.901 22.7305 43.901 22.2598V20.5559C43.901 20.0852 43.4416 19.7039 42.8745 19.7039H33.6129C32.6762 18.6752 31.2038 18 29.53 18C27.8562 18 26.3838 18.6752 25.4471 19.7039H16.1855C15.6184 19.7039 15.159 20.0852 15.159 20.5559V22.2598C15.159 22.7305 15.6184 23.1117 16.1855 23.1117H24.5008C24.8363 24.4834 25.968 25.6122 27.477 26.1601V41.8547H16.1855C15.6184 41.8547 15.159 42.2359 15.159 42.7066V44.4106C15.159 44.8813 15.6184 45.2625 16.1855 45.2625H42.8745C43.4416 45.2625 43.901 44.8813 43.901 44.4106V42.7066C43.901 42.2359 43.4416 41.8547 42.8745 41.8547Z" fill="#E2E2E2"/>
</g>
</g>
</svg>
