<svg width="60" height="63" viewBox="0 0 60 63" fill="none" xmlns="http://www.w3.org/2000/svg">
<g id="icon">
<rect id="stroke" x="2.5" y="2.5" width="55" height="58" stroke="#E2E2E2" stroke-width="5"/>
<g id="&#240;&#159;&#166;&#134; icon &#34;Double Check&#34;">
<path id="Vector" d="M49.7211 26.9007L46.6066 24.6581C45.8673 24.1258 44.6719 24.1258 43.9404 24.6581L25.1043 38.2215L16.3429 31.907C15.6037 31.3747 14.4082 31.3747 13.6768 31.907L10.5545 34.1553C9.81518 34.6877 9.81518 35.5485 10.5545 36.0808L23.7673 45.6007C24.5066 46.1331 25.702 46.1331 26.4334 45.6007L49.7132 28.8262C50.4525 28.2882 50.4525 27.4274 49.7211 26.9007ZM24.2156 32.9038C24.7032 33.2606 25.5054 33.2606 25.993 32.9038L42.3518 21.1129C42.8394 20.7561 42.8394 20.1842 42.3518 19.833L38.7969 17.2676C38.3093 16.9108 37.5071 16.9108 37.0194 17.2676L25.1043 25.8474L20.7472 22.7043C20.2596 22.3475 19.4574 22.3475 18.9698 22.7043L15.407 25.2697C14.9194 25.6265 14.9194 26.1985 15.407 26.5496L24.2156 32.9038Z" fill="#E2E2E2"/>
</g>
</g>
</svg>
