<svg width="66" height="53" viewBox="0 0 66 53" fill="none" xmlns="http://www.w3.org/2000/svg">
<mask id="path-1-outside-1_32_88" maskUnits="userSpaceOnUse" x="-2" y="-1" width="70" height="55" fill="black">
<rect fill="white" x="-2" y="-1" width="70" height="55"/>
<path d="M20.44 52.152C16.984 52.152 13.48 51.768 9.928 51C6.376 50.232 3.256 49.104 0.568 47.616L6.328 35.088C8.488 36.336 10.744 37.272 13.096 37.896C15.496 38.472 17.752 38.76 19.864 38.76C21.784 38.76 23.344 38.448 24.544 37.824C25.792 37.152 26.416 36.168 26.416 34.872C26.416 33.768 25.96 32.928 25.048 32.352C24.136 31.728 22.6 31.416 20.44 31.416H13.744V20.976L26.776 7.728L28.288 13.416H3.16V0.599997H40.744V11.04L27.712 24.288L19.576 19.68H24.04C30.376 19.68 35.2 21.096 38.512 23.928C41.824 26.76 43.48 30.408 43.48 34.872C43.48 37.752 42.664 40.512 41.032 43.152C39.448 45.792 36.952 47.952 33.544 49.632C30.184 51.312 25.816 52.152 20.44 52.152ZM56.1706 51.72C53.4826 51.72 51.2266 50.856 49.4026 49.128C47.5786 47.352 46.6666 45.096 46.6666 42.36C46.6666 39.576 47.5786 37.344 49.4026 35.664C51.2266 33.984 53.4826 33.144 56.1706 33.144C58.8586 33.144 61.1146 33.984 62.9386 35.664C64.7626 37.344 65.6746 39.576 65.6746 42.36C65.6746 45.096 64.7626 47.352 62.9386 49.128C61.1146 50.856 58.8586 51.72 56.1706 51.72Z"/>
</mask>
<path d="M9.928 51L9.611 52.4661L9.928 51ZM0.568 47.616L-0.794855 46.9894L-1.37635 48.2542L-0.158474 48.9283L0.568 47.616ZM6.328 35.088L7.07842 33.7892L5.65289 32.9656L4.96515 34.4614L6.328 35.088ZM13.096 37.896L12.7113 39.3458L12.7286 39.3504L12.7459 39.3546L13.096 37.896ZM24.544 37.824L25.236 39.1548L25.2456 39.1498L25.2552 39.1447L24.544 37.824ZM25.048 32.352L24.201 33.59L24.2237 33.6055L24.247 33.6202L25.048 32.352ZM13.744 31.416H12.244V32.916H13.744V31.416ZM13.744 20.976L12.6747 19.9241L12.244 20.3619V20.976H13.744ZM26.776 7.728L28.2257 7.34265L27.5503 4.80192L25.7067 6.67609L26.776 7.728ZM28.288 13.416V14.916H30.2388L29.7377 13.0306L28.288 13.416ZM3.16 13.416H1.66V14.916H3.16V13.416ZM3.16 0.599997V-0.900003H1.66V0.599997H3.16ZM40.744 0.599997H42.244V-0.900003H40.744V0.599997ZM40.744 11.04L41.8133 12.0919L42.244 11.6541V11.04H40.744ZM27.712 24.288L26.9728 25.5932L27.9742 26.1604L28.7813 25.3399L27.712 24.288ZM19.576 19.68V18.18H13.8838L18.8368 20.9852L19.576 19.68ZM41.032 43.152L39.7561 42.3633L39.7509 42.3717L39.7458 42.3803L41.032 43.152ZM33.544 49.632L32.8808 48.2866L32.8732 48.2904L33.544 49.632ZM20.44 50.652C17.0959 50.652 13.6982 50.2805 10.245 49.5339L9.611 52.4661C13.2618 53.2555 16.8721 53.652 20.44 53.652V50.652ZM10.245 49.5339C6.81086 48.7914 3.83331 47.7091 1.29447 46.3037L-0.158474 48.9283C2.67869 50.4989 5.94114 51.6726 9.611 52.4661L10.245 49.5339ZM1.93085 48.2426L7.69085 35.7146L4.96515 34.4614L-0.794855 46.9894L1.93085 48.2426ZM5.57758 36.3868C7.84939 37.6994 10.2281 38.687 12.7113 39.3458L13.4807 36.4462C11.2599 35.857 9.12661 34.9726 7.07842 33.7892L5.57758 36.3868ZM12.7459 39.3546C15.2419 39.9536 17.6163 40.26 19.864 40.26V37.26C17.8877 37.26 15.7501 36.9904 13.4461 36.4374L12.7459 39.3546ZM19.864 40.26C21.9302 40.26 23.7516 39.9267 25.236 39.1548L23.852 36.4932C22.9364 36.9693 21.6378 37.26 19.864 37.26V40.26ZM25.2552 39.1447C26.0569 38.713 26.7381 38.137 27.2148 37.3853C27.6959 36.6267 27.916 35.7715 27.916 34.872H24.916C24.916 35.2685 24.8241 35.5533 24.6812 35.7787C24.5339 36.011 24.2791 36.263 23.8329 36.5033L25.2552 39.1447ZM27.916 34.872C27.916 33.268 27.2084 31.9424 25.849 31.0838L24.247 33.6202C24.7116 33.9136 24.916 34.268 24.916 34.872H27.916ZM25.895 31.114C24.5894 30.2207 22.6605 29.916 20.44 29.916V32.916C22.5395 32.916 23.6826 33.2353 24.201 33.59L25.895 31.114ZM20.44 29.916H13.744V32.916H20.44V29.916ZM15.244 31.416V20.976H12.244V31.416H15.244ZM14.8133 22.0279L27.8453 8.77991L25.7067 6.67609L12.6747 19.9241L14.8133 22.0279ZM25.3263 8.11335L26.8383 13.8013L29.7377 13.0306L28.2257 7.34265L25.3263 8.11335ZM28.288 11.916H3.16V14.916H28.288V11.916ZM4.66 13.416V0.599997H1.66V13.416H4.66ZM3.16 2.1H40.744V-0.900003H3.16V2.1ZM39.244 0.599997V11.04H42.244V0.599997H39.244ZM39.6747 9.98809L26.6427 23.2361L28.7813 25.3399L41.8133 12.0919L39.6747 9.98809ZM28.4512 22.9828L20.3152 18.3748L18.8368 20.9852L26.9728 25.5932L28.4512 22.9828ZM19.576 21.18H24.04V18.18H19.576V21.18ZM24.04 21.18C30.1773 21.18 34.5971 22.5541 37.5372 25.0681L39.4868 22.7879C35.8029 19.6379 30.5747 18.18 24.04 18.18V21.18ZM37.5372 25.0681C40.5067 27.6072 41.98 30.8342 41.98 34.872H44.98C44.98 29.9818 43.1413 25.9128 39.4868 22.7879L37.5372 25.0681ZM41.98 34.872C41.98 37.4517 41.2534 39.9411 39.7561 42.3633L42.3079 43.9407C44.0746 41.0829 44.98 38.0523 44.98 34.872H41.98ZM39.7458 42.3803C38.3414 44.7209 36.091 46.7041 32.8808 48.2866L34.2072 50.9774C37.813 49.1999 40.5547 46.8631 42.3182 43.9237L39.7458 42.3803ZM32.8732 48.2904C29.7915 49.8312 25.6767 50.652 20.44 50.652V53.652C25.9553 53.652 30.5765 52.7928 34.2148 50.9736L32.8732 48.2904ZM49.4026 49.128L48.3561 50.2027L48.3635 50.2099L48.3709 50.2169L49.4026 49.128ZM49.4026 35.664L48.3863 34.5607L49.4026 35.664ZM62.9386 35.664L63.9548 34.5607L62.9386 35.664ZM62.9386 49.128L63.9702 50.2169L63.9776 50.2099L63.985 50.2027L62.9386 49.128ZM56.1706 50.22C53.8369 50.22 51.9589 49.4836 50.4342 48.0391L48.3709 50.2169C50.4942 52.2284 53.1282 53.22 56.1706 53.22V50.22ZM50.449 48.0533C48.9382 46.5823 48.1666 44.7248 48.1666 42.36H45.1666C45.1666 45.4672 46.2189 48.1217 48.3561 50.2027L50.449 48.0533ZM48.1666 42.36C48.1666 39.9383 48.9426 38.1269 50.4188 36.7673L48.3863 34.5607C46.2145 36.5611 45.1666 39.2137 45.1666 42.36H48.1666ZM50.4188 36.7673C51.9415 35.3648 53.8246 34.644 56.1706 34.644V31.644C53.1405 31.644 50.5116 32.6032 48.3863 34.5607L50.4188 36.7673ZM56.1706 34.644C58.5165 34.644 60.3996 35.3648 61.9223 36.7673L63.9548 34.5607C61.8295 32.6032 59.2006 31.644 56.1706 31.644V34.644ZM61.9223 36.7673C63.3985 38.1269 64.1746 39.9383 64.1746 42.36H67.1746C67.1746 39.2137 66.1266 36.5611 63.9548 34.5607L61.9223 36.7673ZM64.1746 42.36C64.1746 44.7248 63.4029 46.5823 61.8921 48.0533L63.985 50.2027C66.1222 48.1217 67.1746 45.4672 67.1746 42.36H64.1746ZM61.9069 48.0391C60.3822 49.4836 58.5042 50.22 56.1706 50.22V53.22C59.2129 53.22 61.8469 52.2284 63.9702 50.2169L61.9069 48.0391Z" fill="#E2E2E2" mask="url(#path-1-outside-1_32_88)"/>
</svg>
