<svg width="73" height="52" viewBox="0 0 73 52" fill="none" xmlns="http://www.w3.org/2000/svg">
<mask id="path-1-outside-1_32_93" maskUnits="userSpaceOnUse" x="-1" y="-1" width="75" height="55" fill="black">
<rect fill="white" x="-1" y="-1" width="75" height="55"/>
<path d="M0.656 42.36V31.56L22.04 0.599997H39.464L18.872 31.56L10.952 29.184H49.976V42.36H0.656ZM26.792 51V42.36L27.296 29.184V21.48H43.28V51H26.792ZM62.6081 51.72C59.9201 51.72 57.6641 50.856 55.8401 49.128C54.0161 47.352 53.1041 45.096 53.1041 42.36C53.1041 39.576 54.0161 37.344 55.8401 35.664C57.6641 33.984 59.9201 33.144 62.6081 33.144C65.2961 33.144 67.5521 33.984 69.3761 35.664C71.2001 37.344 72.1121 39.576 72.1121 42.36C72.1121 45.096 71.2001 47.352 69.3761 49.128C67.5521 50.856 65.2961 51.72 62.6081 51.72Z"/>
</mask>
<path d="M0.656 42.36H-0.844V43.86H0.656V42.36ZM0.656 31.56L-0.578217 30.7075L-0.844 31.0923V31.56H0.656ZM22.04 0.599997V-0.900003H21.253L20.8058 -0.252474L22.04 0.599997ZM39.464 0.599997L40.713 1.43071L42.2632 -0.900003H39.464V0.599997ZM18.872 31.56L18.441 32.9967L19.5055 33.3161L20.121 32.3907L18.872 31.56ZM10.952 29.184V27.684L10.521 30.6207L10.952 29.184ZM49.976 29.184H51.476V27.684H49.976V29.184ZM49.976 42.36V43.86H51.476V42.36H49.976ZM26.792 51H25.292V52.5H26.792V51ZM26.792 42.36L25.2931 42.3027L25.292 42.3313V42.36H26.792ZM27.296 29.184L28.7949 29.2413L28.796 29.2127V29.184H27.296ZM27.296 21.48V19.98H25.796V21.48H27.296ZM43.28 21.48H44.78V19.98H43.28V21.48ZM43.28 51V52.5H44.78V51H43.28ZM2.156 42.36V31.56H-0.844V42.36H2.156ZM1.89022 32.4125L23.2742 1.45247L20.8058 -0.252474L-0.578217 30.7075L1.89022 32.4125ZM22.04 2.1H39.464V-0.900003H22.04V2.1ZM38.215 -0.230713L17.623 30.7293L20.121 32.3907L40.713 1.43071L38.215 -0.230713ZM19.303 30.1233L11.383 27.7473L10.521 30.6207L18.441 32.9967L19.303 30.1233ZM10.952 30.684H49.976V27.684H10.952V30.684ZM48.476 29.184V42.36H51.476V29.184H48.476ZM49.976 40.86H0.656V43.86H49.976V40.86ZM28.292 51V42.36H25.292V51H28.292ZM28.2909 42.4173L28.7949 29.2413L25.7971 29.1267L25.2931 42.3027L28.2909 42.4173ZM28.796 29.184V21.48H25.796V29.184H28.796ZM27.296 22.98H43.28V19.98H27.296V22.98ZM41.78 21.48V51H44.78V21.48H41.78ZM43.28 49.5H26.792V52.5H43.28V49.5ZM55.8401 49.128L54.7936 50.2027L54.801 50.2099L54.8084 50.2169L55.8401 49.128ZM55.8401 35.664L54.8238 34.5607L55.8401 35.664ZM69.3761 35.664L70.3923 34.5607L69.3761 35.664ZM69.3761 49.128L70.4077 50.2169L70.4151 50.2099L70.4225 50.2027L69.3761 49.128ZM62.6081 50.22C60.2744 50.22 58.3964 49.4836 56.8717 48.0391L54.8084 50.2169C56.9317 52.2284 59.5657 53.22 62.6081 53.22V50.22ZM56.8865 48.0533C55.3757 46.5823 54.6041 44.7248 54.6041 42.36H51.6041C51.6041 45.4672 52.6564 48.1217 54.7936 50.2027L56.8865 48.0533ZM54.6041 42.36C54.6041 39.9383 55.3801 38.1269 56.8563 36.7673L54.8238 34.5607C52.652 36.5611 51.6041 39.2137 51.6041 42.36H54.6041ZM56.8563 36.7673C58.379 35.3648 60.2621 34.644 62.6081 34.644V31.644C59.578 31.644 56.9491 32.6032 54.8238 34.5607L56.8563 36.7673ZM62.6081 34.644C64.954 34.644 66.8371 35.3648 68.3598 36.7673L70.3923 34.5607C68.267 32.6032 65.6381 31.644 62.6081 31.644V34.644ZM68.3598 36.7673C69.836 38.1269 70.6121 39.9383 70.6121 42.36H73.6121C73.6121 39.2137 72.5641 36.5611 70.3923 34.5607L68.3598 36.7673ZM70.6121 42.36C70.6121 44.7248 69.8404 46.5823 68.3296 48.0533L70.4225 50.2027C72.5597 48.1217 73.6121 45.4672 73.6121 42.36H70.6121ZM68.3444 48.0391C66.8197 49.4836 64.9417 50.22 62.6081 50.22V53.22C65.6504 53.22 68.2844 52.2284 70.4077 50.2169L68.3444 48.0391Z" fill="#E2E2E2" mask="url(#path-1-outside-1_32_93)"/>
</svg>
