<svg width="46" height="33" viewBox="0 0 46 33" fill="none" xmlns="http://www.w3.org/2000/svg">
<path id="email" d="M45.8983 1.3894C45.859 1.28813 45.8095 1.19099 45.7504 1.09947C45.7269 1.03875 45.6995 0.979565 45.6683 0.922293C45.5154 0.773455 45.3443 0.643624 45.1591 0.535722L44.8798 0.439079H1.54725C1.43259 0.427208 1.31697 0.427208 1.2023 0.439079L0.923055 0.535722C0.836146 0.582029 0.753679 0.635938 0.676661 0.696794C0.587651 0.758406 0.505113 0.828549 0.430266 0.906187C0.399001 0.963438 0.371566 1.02262 0.348135 1.08336C0.174413 1.25622 0.0547238 1.47418 0.0031826 1.71154C-0.00106087 1.77591 -0.00106087 1.84047 0.0031826 1.90483V30.8977C0.0031826 31.3249 0.176245 31.7346 0.484298 32.0366C0.79235 32.3387 1.21016 32.5084 1.64581 32.5084H44.3542C44.7898 32.5084 45.2076 32.3387 45.5157 32.0366C45.8238 31.7346 45.9968 31.3249 45.9968 30.8977V1.90483C46.0011 1.84047 46.0011 1.77591 45.9968 1.71154C45.9755 1.60109 45.9425 1.49312 45.8983 1.3894ZM39.5249 3.51554L23 15.9825L6.47514 3.51554H39.5249ZM42.7116 29.287H3.28844V5.12626L21.998 19.2361C22.2852 19.4529 22.6375 19.5705 23 19.5705C23.3625 19.5705 23.7148 19.4529 24.002 19.2361L42.7116 5.12626V29.287Z" fill="white"/>
</svg>
