<svg width="45" height="45" viewBox="0 0 45 45" fill="none" xmlns="http://www.w3.org/2000/svg">
<path id="insta" fill-rule="evenodd" clip-rule="evenodd" d="M13.5 0.307617C9.91958 0.307617 6.4858 1.69021 3.95406 4.15123C1.42232 6.61225 0 9.95012 0 13.4305V30.9278C0 34.4082 1.42232 37.746 3.95406 40.2071C6.4858 42.6681 9.91958 44.0507 13.5 44.0507H31.5C35.0804 44.0507 38.5142 42.6681 41.0459 40.2071C43.5777 37.746 45 34.4082 45 30.9278V13.4305C45 9.95012 43.5777 6.61225 41.0459 4.15123C38.5142 1.69021 35.0804 0.307617 31.5 0.307617H13.5ZM3 13.4305C3 7.79254 7.7 3.22382 13.5 3.22382H31.5C37.3 3.22382 42 7.79254 42 13.4305V30.9278C42 36.5657 37.3 41.1345 31.5 41.1345H13.5C10.7152 41.1345 8.04451 40.0591 6.07538 38.145C4.10625 36.2309 3 33.6347 3 30.9278V13.4305ZM37.5 11.0004C37.5 11.6449 37.2366 12.263 36.7678 12.7188C36.2989 13.1745 35.663 13.4305 35 13.4305C34.337 13.4305 33.7011 13.1745 33.2322 12.7188C32.7634 12.263 32.5 11.6449 32.5 11.0004C32.5 10.3558 32.7634 9.73772 33.2322 9.28197C33.7011 8.82623 34.337 8.57019 35 8.57019C35.663 8.57019 36.2989 8.82623 36.7678 9.28197C37.2366 9.73772 37.5 10.3558 37.5 11.0004ZM22.5 13.9166C21.3838 13.9166 20.2785 14.1303 19.2472 14.5455C18.2159 14.9608 17.2789 15.5694 16.4896 16.3366C15.7003 17.1039 15.0742 18.0147 14.647 19.0172C14.2199 20.0197 14 21.0941 14 22.1791C14 23.2642 14.2199 24.3386 14.647 25.3411C15.0742 26.3436 15.7003 27.2544 16.4896 28.0217C17.2789 28.7889 18.2159 29.3975 19.2472 29.8128C20.2785 30.228 21.3838 30.4417 22.5 30.4417C24.7543 30.4417 26.9163 29.5712 28.5104 28.0217C30.1045 26.4721 31 24.3705 31 22.1791C31 19.9878 30.1045 17.8862 28.5104 16.3366C26.9163 14.7871 24.7543 13.9166 22.5 13.9166ZM11 22.1791C11 19.2143 12.2116 16.371 14.3683 14.2746C16.5249 12.1781 19.45 11.0004 22.5 11.0004C25.55 11.0004 28.4751 12.1781 30.6317 14.2746C32.7884 16.371 34 19.2143 34 22.1791C34 25.1439 32.7884 27.9873 30.6317 30.0837C28.4751 32.1802 25.55 33.3579 22.5 33.3579C19.45 33.3579 16.5249 32.1802 14.3683 30.0837C12.2116 27.9873 11 25.1439 11 22.1791Z" fill="white"/>
</svg>
