<svg width="50" height="48" viewBox="0 0 50 48" fill="none" xmlns="http://www.w3.org/2000/svg">
<path id="wpp" d="M50 22.9227C50 35.5827 39.0117 45.8454 25.4544 45.8454C21.3071 45.8517 17.2255 44.8705 13.5894 42.9932L0 47.0574L4.43056 34.7587C2.12136 31.1936 0.902525 27.0979 0.908333 22.9227C0.908333 10.2627 11.8978 0 25.455 0C39.0128 0 50 10.2627 50 22.9227ZM25.4544 3.6506C14.0744 3.6506 4.81778 12.2961 4.81778 22.9227C4.81778 27.1401 6.27833 31.0453 8.74889 34.2222L6.17056 41.3791L14.1011 39.0069C17.473 41.0918 21.4205 42.2002 25.455 42.1948C36.8333 42.1948 46.0917 33.5503 46.0917 22.9232C46.0911 12.2966 36.8339 3.6506 25.4544 3.6506ZM37.8494 28.202C37.6978 27.9683 37.2972 27.8271 36.6961 27.5463C36.0939 27.2656 33.135 25.9056 32.585 25.7195C32.0333 25.5318 31.6311 25.4376 31.2306 25.9997C30.83 26.5623 29.6767 27.8271 29.325 28.202C28.9739 28.5779 28.6233 28.625 28.0211 28.3437C27.42 28.0629 25.4817 27.4689 23.1833 25.5548C21.395 24.0662 20.1872 22.2273 19.8361 21.6647C19.4856 21.1026 19.7994 20.7988 20.1 20.5191C20.3711 20.2671 20.7022 19.8629 21.0028 19.5351C21.3044 19.2067 21.4044 18.973 21.6039 18.5976C21.8056 18.2227 21.705 17.8949 21.5539 17.613C21.4039 17.3323 20.1994 14.5674 19.6983 13.4427C19.1972 12.318 18.6967 12.5052 18.345 12.5052C17.9944 12.5052 17.5928 12.4582 17.1917 12.4582C16.7906 12.4582 16.1383 12.5988 15.5867 13.1609C15.0356 13.7235 13.4817 15.0829 13.4817 17.8473C13.4817 20.6122 15.6367 23.2835 15.9383 23.6583C16.2389 24.0327 20.0994 29.8908 26.2161 32.1407C32.3333 34.389 32.3333 33.6387 33.4367 33.5446C34.5389 33.451 36.9956 32.1857 37.4989 30.8743C37.9989 29.5609 37.9989 28.4362 37.8494 28.202Z" fill="white"/>
</svg>
