<svg width="32" height="32" viewBox="0 0 32 32" fill="none" xmlns="http://www.w3.org/2000/svg">
<g id="&#240;&#159;&#166;&#134; icon &#34;Instagram&#34;">
<path id="Vector" d="M15.5688 7.58211C11.1518 7.58211 7.58905 11.1448 7.58905 15.5618C7.58905 19.9788 11.1518 23.5415 15.5688 23.5415C19.9857 23.5415 23.5485 19.9788 23.5485 15.5618C23.5485 11.1448 19.9857 7.58211 15.5688 7.58211ZM15.5688 20.7497C12.7144 20.7497 10.3809 18.4231 10.3809 15.5618C10.3809 12.7005 12.7074 10.374 15.5688 10.374C18.4301 10.374 20.7566 12.7005 20.7566 15.5618C20.7566 18.4231 18.4231 20.7497 15.5688 20.7497ZM25.7361 7.25569C25.7361 8.29049 24.9027 9.11693 23.8749 9.11693C22.8401 9.11693 22.0136 8.28354 22.0136 7.25569C22.0136 6.22785 22.847 5.39446 23.8749 5.39446C24.9027 5.39446 25.7361 6.22785 25.7361 7.25569ZM31.0212 9.14471C30.9031 6.65149 30.3336 4.44301 28.5071 2.62344C26.6876 0.803873 24.4791 0.234391 21.9859 0.109382C19.4162 -0.0364608 11.7143 -0.0364608 9.14471 0.109382C6.65843 0.227446 4.44995 0.796928 2.62344 2.61649C0.796929 4.43606 0.234391 6.64454 0.109382 9.13777C-0.0364608 11.7074 -0.0364608 19.4093 0.109382 21.9789C0.227446 24.4721 0.796929 26.6806 2.62344 28.5002C4.44995 30.3197 6.65149 30.8892 9.14471 31.0142C11.7143 31.1601 19.4162 31.1601 21.9859 31.0142C24.4791 30.8962 26.6876 30.3267 28.5071 28.5002C30.3267 26.6806 30.8962 24.4721 31.0212 21.9789C31.167 19.4093 31.167 11.7143 31.0212 9.14471ZM27.7015 24.736C27.1598 26.0972 26.1111 27.1459 24.743 27.6946C22.6942 28.5071 17.8328 28.3196 15.5688 28.3196C13.3047 28.3196 8.43633 28.5002 6.39453 27.6946C5.03332 27.1529 3.98464 26.1042 3.43599 24.736C2.62344 22.6873 2.81095 17.8258 2.81095 15.5618C2.81095 13.2978 2.63038 8.42939 3.43599 6.38758C3.9777 5.02638 5.02638 3.9777 6.39453 3.42905C8.44327 2.61649 13.3047 2.80401 15.5688 2.80401C17.8328 2.80401 22.7012 2.62344 24.743 3.42905C26.1042 3.97075 27.1529 5.01943 27.7015 6.38758C28.5141 8.43633 28.3266 13.2978 28.3266 15.5618C28.3266 17.8258 28.5141 22.6942 27.7015 24.736Z" fill="white"/>
</g>
</svg>
