<svg width="31" height="27" viewBox="0 0 31 27" fill="none" xmlns="http://www.w3.org/2000/svg">
<g id="&#240;&#159;&#166;&#134; icon &#34;Object Group&#34;">
<path id="Vector" d="M29.6567 5.69409C30.0498 5.69409 30.3685 5.3754 30.3685 4.98233V0.711761C30.3685 0.318691 30.0498 0 29.6567 0H25.3861C24.9931 0 24.6744 0.318691 24.6744 0.711761V1.42352H5.69409V0.711761C5.69409 0.318691 5.3754 0 4.98233 0H0.711761C0.318691 0 0 0.318691 0 0.711761V4.98233C0 5.3754 0.318691 5.69409 0.711761 5.69409H1.42352V20.8783H0.711761C0.318691 20.8783 0 21.197 0 21.5901V25.8606C0 26.2537 0.318691 26.5724 0.711761 26.5724H4.98233C5.3754 26.5724 5.69409 26.2537 5.69409 25.8606V25.1489H24.6744V25.8606C24.6744 26.2537 24.9931 26.5724 25.3861 26.5724H29.6567C30.0498 26.5724 30.3685 26.2537 30.3685 25.8606V21.5901C30.3685 21.197 30.0498 20.8783 29.6567 20.8783H28.9449V5.69409H29.6567ZM26.5724 1.89803H28.4704V3.79606H26.5724V1.89803ZM1.89803 1.89803H3.79606V3.79606H1.89803V1.89803ZM3.79606 24.6744H1.89803V22.7764H3.79606V24.6744ZM28.4704 24.6744H26.5724V22.7764H28.4704V24.6744ZM26.0979 20.8783H25.3861C24.9931 20.8783 24.6744 21.197 24.6744 21.5901V22.3018H5.69409V21.5901C5.69409 21.197 5.3754 20.8783 4.98233 20.8783H4.27057V5.69409H4.98233C5.3754 5.69409 5.69409 5.3754 5.69409 4.98233V4.27057H24.6744V4.98233C24.6744 5.3754 24.9931 5.69409 25.3861 5.69409H26.0979V20.8783ZM23.9626 9.49015H18.9803V6.40585C18.9803 6.01272 18.6616 5.69409 18.2685 5.69409H6.40585C6.01278 5.69409 5.69409 6.01272 5.69409 6.40585V16.3705C5.69409 16.7636 6.01278 17.0823 6.40585 17.0823H11.3882V20.1666C11.3882 20.5597 11.7069 20.8783 12.0999 20.8783H23.9626C24.3557 20.8783 24.6744 20.5597 24.6744 20.1666V10.2019C24.6744 9.80878 24.3557 9.49015 23.9626 9.49015ZM8.06662 8.06662H16.6078V14.7097H8.06662V8.06662ZM22.3018 18.5058H13.7607V17.0823H18.2685C18.6616 17.0823 18.9803 16.7636 18.9803 16.3705V11.8627H22.3018V18.5058Z" fill="white"/>
</g>
</svg>
