<svg width="35" height="28" viewBox="0 0 35 28" fill="none" xmlns="http://www.w3.org/2000/svg">
<g id="&#240;&#159;&#166;&#134; icon &#34;Laptop Code&#34;">
<path id="Vector" d="M13.9063 14.2673C14.2471 14.6081 14.7995 14.6081 15.1403 14.2673L15.757 13.6506C16.0978 13.3098 16.0978 12.7574 15.757 12.4166L13.8092 10.4694L15.7564 8.52165C16.0972 8.18085 16.0972 7.62848 15.7564 7.28768L15.1397 6.67097C14.7989 6.33017 14.2466 6.33017 13.9058 6.67097L10.7246 9.85213C10.3838 10.1929 10.3838 10.7453 10.7246 11.0861L13.9063 14.2673ZM19.1415 13.6511L19.7583 14.2678C20.0991 14.6086 20.6514 14.6086 20.9922 14.2678L24.1734 11.0867C24.5142 10.7459 24.5142 10.1935 24.1734 9.85268L20.9922 6.67151C20.6514 6.33071 20.0991 6.33071 19.7583 6.67151L19.1415 7.28822C18.8007 7.62903 18.8007 8.18139 19.1415 8.52219L21.0887 10.4694L19.1415 12.4171C18.8007 12.7579 18.8007 13.3103 19.1415 13.6511ZM34.0255 22.6837H20.8046C20.7643 23.7639 20.0025 24.4286 19.0194 24.4286H15.7041C14.685 24.4286 13.9036 23.476 13.9172 22.6837H0.872449C0.392602 22.6837 0 23.0763 0 23.5561V24.4286C0 26.348 1.57041 27.9184 3.4898 27.9184H31.4082C33.3276 27.9184 34.898 26.348 34.898 24.4286V23.5561C34.898 23.0763 34.5054 22.6837 34.0255 22.6837ZM31.4082 2.61735C31.4082 1.17781 30.2304 0 28.7908 0H6.10715C4.6676 0 3.4898 1.17781 3.4898 2.61735V20.9388H31.4082V2.61735ZM27.9184 17.449H6.9796V3.4898H27.9184V17.449Z" fill="white"/>
</g>
</svg>
