<svg width="34" height="34" viewBox="0 0 34 34" fill="none" xmlns="http://www.w3.org/2000/svg">
<g clip-path="url(#clip0_37_390)">
<path d="M31.1644 1.28162L32.7183 2.83552C34.3785 4.49568 34.3785 7.18513 32.7183 8.84529L28.973 12.5906L21.4027 5.02693L25.148 1.28162C26.8082 -0.37854 29.4976 -0.37854 31.1578 1.28162H31.1644ZM2.98163 23.4547L19.9019 6.52771L27.4723 14.098L10.5453 31.0183C10.1004 31.4633 9.54257 31.7886 8.93827 31.9613L2.03202 33.9336C1.47421 34.0929 0.876551 33.9402 0.464832 33.5285C0.0531137 33.1168 -0.0996207 32.5191 0.0597543 31.9613L2.03202 25.0551C2.20468 24.4441 2.53007 23.8929 2.97499 23.448L2.98163 23.4547ZM16.5617 6.86638L6.86639 16.5617L1.06249 10.7511C-0.179308 9.50935 -0.179308 7.4906 1.06249 6.24216L6.24882 1.06248C7.49061 -0.179321 9.50936 -0.179321 10.7578 1.06248L12.0726 2.37732C12.0527 2.39724 12.0262 2.41716 12.0062 2.43709L7.75624 6.68708C7.34452 7.0988 7.34452 7.77615 7.75624 8.18787C8.16796 8.59958 8.8453 8.59958 9.25702 8.18787L13.507 3.93787C13.5269 3.91794 13.5469 3.89138 13.5668 3.87146L16.5617 6.86638ZM27.1336 17.4383L30.1285 20.4332C30.1086 20.4531 30.082 20.473 30.0621 20.4929L25.8121 24.7429C25.4004 25.1547 25.4004 25.832 25.8121 26.2437C26.2238 26.6554 26.9012 26.6554 27.3129 26.2437L31.5629 21.9937C31.5828 21.9738 31.6027 21.9472 31.6226 21.9273L32.9375 23.2488C34.1793 24.4906 34.1793 26.5094 32.9375 27.7578L27.7512 32.9375C26.5094 34.1793 24.4906 34.1793 23.2422 32.9375L17.4383 27.1336L27.1336 17.4383Z" fill="#E2E2E2"/>
</g>
<defs>
<clipPath id="clip0_37_390">
<rect width="34" height="34" fill="white"/>
</clipPath>
</defs>
</svg>
