<svg width="60" height="63" viewBox="0 0 60 63" fill="none" xmlns="http://www.w3.org/2000/svg">
<g id="icon">
<rect id="stroke" x="2.5" y="2.50012" width="55" height="58" stroke="#E2E2E2" stroke-width="5"/>
<g id="&#240;&#159;&#166;&#134; icon &#34;T-Shirt&#34;">
<path id="Vector" d="M49.5634 23.2773L37.0524 18C35.7608 19.5203 32.9013 20.5812 29.5664 20.5812C26.2314 20.5812 23.3719 19.5203 22.0803 18L9.56934 23.2773C9.0617 23.4961 8.85608 24.0211 9.10668 24.4531L12.7822 30.7148C13.0393 31.1469 13.6561 31.3219 14.1638 31.1086L17.8008 29.5938C18.4819 29.3094 19.2787 29.7305 19.2787 30.3812V44.25C19.2787 45.218 20.1976 46 21.3349 46H37.7849C38.9223 46 39.8412 45.218 39.8412 44.25V30.3758C39.8412 29.7305 40.638 29.3039 41.3191 29.5883L44.9561 31.1031C45.4637 31.3219 46.0806 31.1469 46.3376 30.7094L50.0196 24.4531C50.2766 24.0211 50.071 23.4906 49.5634 23.2773Z" fill="#E2E2E2"/>
</g>
</g>
</svg>
