<svg width="60" height="63" viewBox="0 0 60 63" fill="none" xmlns="http://www.w3.org/2000/svg">
<g id="icon">
<rect id="stroke" x="2.5" y="2.5" width="55" height="58" stroke="#E2E2E2" stroke-width="5"/>
<g id="&#240;&#159;&#166;&#134; icon &#34;Dumbbell&#34;">
<path id="Vector" d="M17.2537 24H14.3674C13.5676 24 12.9242 24.5016 12.9242 25.125V30H11.4811C11.2165 30 11 30.1687 11 30.375V32.625C11 32.8313 11.2165 33 11.4811 33H12.9242V37.875C12.9242 38.4984 13.5676 39 14.3674 39H17.2537C18.0535 39 18.6969 38.4984 18.6969 37.875V25.125C18.6969 24.5016 18.0535 24 17.2537 24ZM49.0034 30H47.5602V25.125C47.5602 24.5016 46.9168 24 46.117 24H43.2307C42.431 24 41.7875 24.5016 41.7875 25.125V37.875C41.7875 38.4984 42.431 39 43.2307 39H46.117C46.9168 39 47.5602 38.4984 47.5602 37.875V33H49.0034C49.268 33 49.4844 32.8313 49.4844 32.625V30.375C49.4844 30.1687 49.268 30 49.0034 30ZM38.4202 21H35.5338C34.7341 21 34.0907 21.5016 34.0907 22.125V30H26.3938V22.125C26.3938 21.5016 25.7504 21 24.9506 21H22.0643C21.2645 21 20.6211 21.5016 20.6211 22.125V40.875C20.6211 41.4984 21.2645 42 22.0643 42H24.9506C25.7504 42 26.3938 41.4984 26.3938 40.875V33H34.0907V40.875C34.0907 41.4984 34.7341 42 35.5338 42H38.4202C39.2199 42 39.8633 41.4984 39.8633 40.875V22.125C39.8633 21.5016 39.2199 21 38.4202 21Z" fill="#E2E2E2"/>
</g>
</g>
</svg>
