<svg width="60" height="63" viewBox="0 0 60 63" fill="none" xmlns="http://www.w3.org/2000/svg">
<g id="icon">
<rect id="stroke" x="2.5" y="2.5" width="55" height="58" stroke="#E2E2E2" stroke-width="5"/>
<g id="&#240;&#159;&#166;&#134; icon &#34;Utensils&#34;">
<path id="Vector" d="M30.3302 18.8313C30.3891 19.0884 31.5173 23.9993 31.5173 25.8751C31.5173 28.7352 29.4674 30.775 26.4368 31.5954L27.388 44.6164C27.4396 45.3656 26.6359 46 25.6183 46H20.899C19.8888 46 19.0777 45.3711 19.1293 44.6164L20.0806 31.5954C17.0425 30.775 15 28.7297 15 25.8751C15 23.9938 16.1282 19.0884 16.1872 18.8313C16.4231 17.7212 19.5275 17.7048 19.7192 18.8915V26.6133C19.8151 26.7993 20.8327 26.7883 20.899 26.6133C21.0023 25.2297 21.4816 19.0009 21.489 18.8587C21.7323 17.7212 24.785 17.7212 25.021 18.8587C25.0358 19.0063 25.5077 25.2297 25.6109 26.6133C25.6773 26.7883 26.7022 26.7993 26.7907 26.6133V18.8915C26.9824 17.7102 30.0942 17.7212 30.3302 18.8313ZM39.1197 34.4555L38.0137 44.5781C37.9252 45.3438 38.7437 46 39.776 46H43.9053C44.8861 46 45.6751 45.4148 45.6751 44.6875V19.3126C45.6751 18.5907 44.8861 18.0001 43.9053 18.0001C37.8219 18.0001 27.5797 27.7618 39.1197 34.4555Z" fill="#E2E2E2"/>
</g>
</g>
</svg>
