<svg width="34" height="38" viewBox="0 0 34 38" fill="none" xmlns="http://www.w3.org/2000/svg">
<path d="M14.1237 3.86677C12.8487 2.90193 11.2853 2.37498 9.67636 2.37498C5.66921 2.37498 2.42859 5.54412 2.42859 9.46287V9.92302C2.42859 11.0957 2.70939 12.2461 3.24064 13.3L5.02412 16.7957C5.36564 17.4562 5.60091 18.1613 5.73752 18.8886L8.52279 34.1629C8.67457 34.9941 9.40314 35.6027 10.2607 35.6324C11.1183 35.6621 11.8848 35.0832 12.0822 34.2668L14.2755 25.264C14.5866 24.0246 15.7098 23.1562 17 23.1562C18.2902 23.1562 19.4134 24.0246 19.717 25.2566L21.9103 34.2594C22.1076 35.0832 22.8741 35.6547 23.7317 35.625C24.5893 35.5953 25.3179 34.9867 25.4697 34.1554L28.2549 18.8812C28.3915 18.1539 28.6268 17.4488 28.9683 16.7883L30.7518 13.2926C31.2906 12.2461 31.5639 11.0883 31.5639 9.9156V9.75974C31.5639 5.67771 28.179 2.36755 24.0049 2.36755C22.1759 2.36755 20.4076 3.02068 19.0264 4.19333L18.7835 4.40115L20.2634 5.52927C20.7947 5.93005 20.8857 6.67966 20.4759 7.19919C20.0661 7.71873 19.2996 7.80779 18.7683 7.40701L16.9165 5.99685L14.1085 3.85935L14.1237 3.86677Z" fill="#E2E2E2"/>
</svg>
