<svg width="32" height="32" viewBox="0 0 32 32" fill="none" xmlns="http://www.w3.org/2000/svg">
<path d="M14.1563 5.80629C15.05 8.48755 14.1375 11.1938 12.1188 11.8563C10.1 12.5188 7.73753 10.8813 6.84378 8.20004C5.95003 5.51879 6.86253 2.81254 8.88128 2.15004C10.9 1.48754 13.2625 3.12504 14.1563 5.80629ZM6.27503 12.4125C7.45628 14.4375 7.16878 16.7938 5.63753 17.6688C4.10628 18.5438 1.90628 17.6125 0.73128 15.5875C-0.44372 13.5625 -0.16872 11.2063 1.36253 10.3313C2.89378 9.4563 5.09378 10.3875 6.26878 12.4125H6.27503ZM4.32503 25.075C7.60003 16.2438 13.4188 14 16 14C18.5813 14 24.4 16.2438 27.675 25.075C27.9 25.6813 28 26.3313 28 26.9813V27.0813C28 28.6938 26.6938 30 25.0813 30C24.3625 30 23.65 29.9125 22.9563 29.7375L17.4563 28.3625C16.5 28.125 15.5 28.125 14.5438 28.3625L9.04378 29.7375C8.35003 29.9125 7.63753 30 6.91878 30C5.30628 30 4.00003 28.6938 4.00003 27.0813V26.9813C4.00003 26.3313 4.10003 25.6813 4.32503 25.075ZM26.3625 17.6688C24.8313 16.7938 24.5438 14.4375 25.725 12.4125C26.9063 10.3875 29.1 9.4563 30.6313 10.3313C32.1625 11.2063 32.45 13.5625 31.2688 15.5875C30.0875 17.6125 27.8938 18.5438 26.3625 17.6688ZM19.3813 11.8563C17.3625 11.1938 16.45 8.48755 17.3438 5.80629C18.2375 3.12504 20.6 1.48754 22.6188 2.15004C24.6375 2.81254 25.55 5.51879 24.6563 8.20004C23.7625 10.8813 21.4 12.5188 19.3813 11.8563Z" fill="#E2E2E2"/>
</svg>
