<svg width="40" height="30" viewBox="0 0 40 30" fill="none" xmlns="http://www.w3.org/2000/svg">
<path d="M4.44444 0C1.99306 0 0 1.68164 0 3.75V20.625C0 22.6934 1.99306 24.375 4.44444 24.375H16.6667L15.9236 26.25H11.1111C9.88194 26.25 8.88889 27.0879 8.88889 28.125C8.88889 29.1621 9.88194 30 11.1111 30H28.8889C30.1181 30 31.1111 29.1621 31.1111 28.125C31.1111 27.0879 30.1181 26.25 28.8889 26.25H24.0764L23.3333 24.375H35.5556C38.0069 24.375 40 22.6934 40 20.625V3.75C40 1.68164 38.0069 0 35.5556 0H4.44444ZM35.5556 3.75V16.875H4.44444V3.75H35.5556Z" fill="#E2E2E2"/>
</svg>
