<svg width="21" height="26" viewBox="0 0 21 26" fill="none" xmlns="http://www.w3.org/2000/svg">
<g id="&#240;&#159;&#166;&#134; icon &#34;Utensils&#34;">
<path id="Vector" d="M10.3558 0.757204C10.3956 0.991317 11.1577 5.46438 11.1577 7.1729C11.1577 9.77804 9.77298 11.636 7.72574 12.3832L8.3683 24.2432C8.40317 24.9257 7.86023 25.5035 7.17283 25.5035H3.98491C3.30249 25.5035 2.75457 24.9306 2.78943 24.2432L3.432 12.3832C1.37977 11.636 0 9.77306 0 7.1729C0 5.45939 0.762113 0.991317 0.801963 0.757204C0.961359 -0.253967 3.05842 -0.26891 3.18793 0.811996V7.84536C3.25268 8.01472 3.94008 8.00475 3.98491 7.84536C4.05464 6.58513 4.37842 0.911619 4.3834 0.782109C4.54778 -0.253967 6.60996 -0.253967 6.76936 0.782109C6.77932 0.9166 7.09812 6.58513 7.16785 7.84536C7.21268 8.00475 7.90506 8.01472 7.96483 7.84536V0.811996C8.09434 -0.263929 10.1964 -0.253967 10.3558 0.757204ZM16.2933 14.9883L15.5461 24.2084C15.4863 24.9057 16.0393 25.5035 16.7366 25.5035H19.526C20.1885 25.5035 20.7215 24.9705 20.7215 24.308V1.19554C20.7215 0.538034 20.1885 7.11931e-05 19.526 7.11931e-05C15.4166 7.11931e-05 8.49781 8.89139 16.2933 14.9883Z" fill="white"/>
</g>
</svg>
