<svg width="60" height="63" viewBox="0 0 60 63" fill="none" xmlns="http://www.w3.org/2000/svg">
<g id="icon">
<rect id="stroke" x="2.5" y="2.5" width="55" height="58" stroke="#E2E2E2" stroke-width="5"/>
<g id="&#240;&#159;&#166;&#134; icon &#34;Helping Hands&#34;">
<path id="Vector" d="M42.5015 28.1247H31.4442V31.0781C31.4442 33.1718 29.0945 34.8753 26.2065 34.8753C23.3185 34.8753 20.9688 33.1718 20.9688 31.0781V24.665L16.2476 26.7219C14.8436 27.3284 13.9852 28.4306 13.9852 29.6119V32.1065L8.16559 34.543C7.05258 35.0071 6.66703 36.0408 7.31447 36.8477L13.1341 44.1573C13.7743 44.9642 15.2001 45.2385 16.3131 44.7744L23.835 41.6259H33.772C36.34 41.6259 38.4278 40.1123 38.4278 38.2506H39.5917C40.8793 38.2506 41.9196 37.4964 41.9196 36.5629V33.1876H42.5015C43.469 33.1876 44.2474 32.6233 44.2474 31.9219V29.3904C44.2474 28.689 43.469 28.1247 42.5015 28.1247ZM53.2461 26.1523L47.4264 18.8427C46.7862 18.0358 45.3604 17.7615 44.2474 18.2256L36.7255 21.3741H29.2909C28.418 21.3741 27.5668 21.5535 26.8248 21.8857L24.3879 22.988C23.7041 23.2938 23.2967 23.837 23.2967 24.4172V31.0781C23.2967 32.2436 24.5988 33.1876 26.2065 33.1876C27.8142 33.1876 29.1163 32.2436 29.1163 31.0781V26.4371H42.5015C44.7494 26.4371 46.5753 27.7608 46.5753 29.3904V30.8935L52.3949 28.457C53.5079 27.9876 53.8862 26.9592 53.2461 26.1523Z" fill="#E2E2E2"/>
</g>
</g>
</svg>
